HIERARCHY
ROOT root
{
	OFFSET	0	13.1	24.9
	CHANNELS 6  Xposition Yposition Zposition Xrotation Yrotation Zrotation
	JOINT spine_1
	{
		OFFSET	0	9.99999	0
		CHANNELS 3  Xrotation Yrotation Zrotation
		JOINT spine_2
		{
			OFFSET	0	112	-10
			CHANNELS 3  Xrotation Yrotation Zrotation
			JOINT spine_3
			{
				OFFSET	0	206.5	19.3
				CHANNELS 3  Xrotation Yrotation Zrotation
				JOINT spine_4
				{
					OFFSET	0	110.4	14.6
					CHANNELS 3  Xrotation Yrotation Zrotation
					JOINT neck_1
					{
						OFFSET	0	71.8	-50.3
						CHANNELS 3  Xrotation Yrotation Zrotation
						JOINT neck_2
						{
							OFFSET	0	86.2	-25.8
							CHANNELS 3  Xrotation Yrotation Zrotation
							JOINT head_ee
							{
								OFFSET	0	179.8	-8.7
								CHANNELS 3  Xrotation Yrotation Zrotation
								End Site
								{
									OFFSET	1	0	0
								}
							}
						}
					}
					JOINT left_clavicle
					{
						OFFSET	-43.2	22.4	-70.8
						CHANNELS 3  Xrotation Yrotation Zrotation
						JOINT left_shoulder
						{
							OFFSET	-93.9	-5.79999	48.7
							CHANNELS 3  Xrotation Yrotation Zrotation
							JOINT left_elbow
							{
								OFFSET	-291.4	-30.8	15.2
								CHANNELS 3  Xrotation Yrotation Zrotation
								JOINT left_lowarm_twist
								{
									OFFSET	-110.7	-3.89999	13.6
									CHANNELS 3  Xrotation Yrotation Zrotation
									JOINT left_hand
									{
										OFFSET	-110.7	-3.89999	13.6
										CHANNELS 3  Xrotation Yrotation Zrotation
										JOINT left_ee
										{
											OFFSET	-80.8	-5.10001	12.1
											CHANNELS 3  Xrotation Yrotation Zrotation
											End Site
											{
												OFFSET	1	0	0
											}
										}
									}
								}
							}
						}
					}
					JOINT right_clavicle
					{
						OFFSET	43.2	22.4	-70.8
						CHANNELS 3  Xrotation Yrotation Zrotation
						JOINT right_shoulder
						{
							OFFSET	93.9	-5.79999	48.7
							CHANNELS 3  Xrotation Yrotation Zrotation
							JOINT right_elbow
							{
								OFFSET	291.4	-30.8	15.2
								CHANNELS 3  Xrotation Yrotation Zrotation
								JOINT right_lowarm_twist
								{
									OFFSET	110.7	-3.89999	13.6
									CHANNELS 3  Xrotation Yrotation Zrotation
									JOINT right_hand
									{
										OFFSET	110.7	-3.89999	13.6
										CHANNELS 3  Xrotation Yrotation Zrotation
										JOINT right_ee
										{
											OFFSET	80.8	-5.10001	12.1
											CHANNELS 3  Xrotation Yrotation Zrotation
											End Site
											{
												OFFSET	1	0	0
											}
										}
									}
								}
							}
						}
					}
				}
			}
		}
	}
	JOINT left_hip
	{
		OFFSET	-82.8	-127.5	0.300001
		CHANNELS 3  Xrotation Yrotation Zrotation
		JOINT left_knee
		{
			OFFSET	-28.2	-396.7	2.2
			CHANNELS 3  Xrotation Yrotation Zrotation
			JOINT left_ankle
			{
				OFFSET	-11.7	-411.3	35.4
				CHANNELS 3  Xrotation Yrotation Zrotation
				JOINT left_toes
				{
					OFFSET	0	-60	-88.6
					CHANNELS 3  Xrotation Yrotation Zrotation
					JOINT left_foot_ee
					{
						OFFSET	-22.5	-16.5	-42.2
						CHANNELS 3  Xrotation Yrotation Zrotation
						End Site
						{
							OFFSET	1	0	0
						}
					}
				}
			}
		}
	}
	JOINT right_hip
	{
		OFFSET	82.8	-127.5	0.300001
		CHANNELS 3  Xrotation Yrotation Zrotation
		JOINT right_knee
		{
			OFFSET	28.2	-396.7	2.2
			CHANNELS 3  Xrotation Yrotation Zrotation
			JOINT right_ankle
			{
				OFFSET	11.7	-411.3	35.4
				CHANNELS 3  Xrotation Yrotation Zrotation
				JOINT right_toes
				{
					OFFSET	0	-60	-88.6
					CHANNELS 3  Xrotation Yrotation Zrotation
					JOINT right_foot_ee
					{
						OFFSET	22.5	-16.5	-42.2
						CHANNELS 3  Xrotation Yrotation Zrotation
						End Site
						{
							OFFSET	1	0	0
						}
					}
				}
			}
		}
	}
}
MOTION
Frames: 15
Frame Time: 0.02
3605.54 769.906 -744.1 -13.6755 41.5689 5.09403 5.01925 0.107626 0.408167 5.01934 0.0814359 0.414188 5.01985 0.0295241 0.421084 5.01962 0.0956554 0.411137 -23.6194 -4.90336 4.8018 -23.8124 -11.5942 2.07684 -0.0 0.0 -0.0 5.39396 16.5788 10.4266 -48.7613 -44.0364 42.5431 1.28333 -32.4437 0.373387 -7.90113 -0.344454 0.948747 -3.35164 13.5752 -15.6195 -0.0 0.0 -0.0 6.93743 4.64754 -13.4199 -29.212 17.9618 -62.0374 0.645487 17.732 -0.100689 0.662718 -0.0228783 0.0815471 0.42162 3.62671 -1.30182 0.0 0.0 0.0 14.4935 -15.6387 1.32237 -9.0471 0.265449 1.36164 9.24562 -20.5101 -1.4982 -5.86457 0.0 0.0 -0.0 0.0 -0.0 8.38391 -5.94088 7.05413 7.01124 0.35152 1.0174 -0.120079 3.95238 -0.0179954 -0.734056 0.0 0.0 0.0 0.0 0.0 
3612.35 770.896 -749.053 -13.85 42.508 5.48109 5.06002 0.0763939 0.393554 5.0601 0.0511964 0.397618 5.06038 0.00185199 0.400896 5.06016 0.0651422 0.395572 -25.35 -4.51665 5.25584 -25.5241 -10.883 2.56201 -0.0 0.0 -0.0 5.23011 17.0139 10.1548 -49.7435 -43.3263 41.2121 1.37358 -34.2307 0.422988 -7.74041 -0.336151 0.929942 -3.45318 13.9505 -16.0691 -0.0 0.0 -0.0 7.10536 5.27122 -13.753 -29.3582 19.1156 -62.2596 0.679411 18.6013 -0.111267 2.08778 -0.0688677 0.25775 0.43069 3.52714 -1.40472 0.0 0.0 0.0 15.4082 -14.3738 0.937938 -10.9014 0.293115 1.64481 9.57386 -18.4051 -1.5202 -5.69422 0.0 0.0 -0.0 0.0 -0.0 8.76962 -7.46038 6.43305 6.39842 0.315845 0.930237 0.101573 4.62922 0.0152542 -0.233454 0.0 0.0 0.0 0.0 0.0 
3608.49 770.622 -753.418 -14.1849 44.5796 5.84289 5.00572 0.00427885 0.410329 5.00582 -0.0218399 0.40977 5.00558 -0.0725131 0.403894 5.00535 -0.00781607 0.410277 -25.5476 -4.82553 4.22474 -25.7585 -11.0341 1.42481 -0.0 0.0 -0.0 4.59433 18.3142 9.13837 -48.3059 -43.1222 42.3505 1.41275 -34.9837 0.445238 -7.70996 -0.334585 0.926378 -3.44823 14.2138 -15.8859 -0.0 0.0 -0.0 7.24368 5.15102 -14.0408 -29.2221 19.4458 -61.8882 0.673783 18.4577 -0.109478 2.80757 -0.0904256 0.347165 0.281305 2.64628 -0.770696 0.0 0.0 0.0 14.5921 -10.9336 2.78674 -11.7742 0.302962 1.77837 10.3934 -15.6623 -1.6088 -4.85069 0.0 0.0 -0.0 0.0 -0.0 8.73914 -9.10321 6.58236 5.87191 0.285942 0.855055 -1.39864 3.10876 -0.209606 -0.939777 0.0 0.0 0.0 0.0 0.0 
3609.97 771.583 -755.455 -15.166 45.6874 6.94251 5.04033 -0.0965393 0.286023 5.04037 -0.114544 0.2793 5.03978 -0.148156 0.263018 5.0397 -0.104758 0.283116 -22.3223 -5.77831 -1.12829 -22.5113 -10.6236 -3.71183 -0.0 0.0 -0.0 4.68278 16.5547 9.29368 -45.6826 -42.5335 45.9488 1.28909 -32.56 0.376483 -7.17591 -0.30741 0.863717 -3.2086 14.4053 -14.225 -0.0 0.0 -0.0 7.50003 6.05912 -14.5557 -28.9322 20.4213 -62.1137 0.675169 18.493 -0.109918 4.8607 -0.145721 0.603588 0.390999 0.261832 -2.50322 0.0 0.0 0.0 15.2746 -6.07936 2.75469 -12.479 0.309427 1.88631 10.9431 -7.45712 -1.60706 -3.05899 0.0 0.0 -0.0 0.0 -0.0 9.13609 -10.0438 6.23692 5.75669 0.279491 0.838566 1.14291 4.66979 0.171202 0.594679 -0.0 -0.0 0.0 0.0 0.0 
3609.78 771.777 -757.748 -15.8031 47.1505 7.52118 5.02846 -0.146261 0.266321 5.02849 -0.162911 0.256474 5.02774 -0.193385 0.234354 5.0277 -0.153946 0.261954 -24.5484 -5.45151 1.03072 -24.7853 -10.9534 -1.7785 -0.0 0.0 -0.0 4.04403 19.2379 8.29446 -46.0983 -43.1906 44.2903 1.39383 -34.6217 0.434438 -7.10786 -0.303989 0.855716 -3.24351 14.5038 -14.395 -0.0 0.0 -0.0 7.39071 5.84517 -14.3324 -28.9339 20.8767 -61.7481 0.690423 18.8815 -0.114805 4.65525 -0.140602 0.577842 0.140913 1.56079 -0.285377 0.0 0.0 0.0 15.9403 -4.93877 2.81841 -13.3095 0.315341 2.0136 11.1403 -10.0864 -1.65722 -3.80913 0.0 0.0 -0.0 0.0 -0.0 9.34794 -10.603 6.42014 5.25165 0.251606 0.766143 -0.0889569 3.80053 -0.0133227 -0.230018 0.0 0.0 0.0 0.0 0.0 
3609.09 770.074 -763.661 -16.6245 48.3188 7.85615 5.17011 -0.148447 0.222402 5.17012 -0.162298 0.212505 5.16951 -0.186864 0.191261 5.1695 -0.154313 0.218372 -23.842 -5.73289 -0.567944 -24.0627 -10.8092 -3.32866 -0.0 0.0 -0.0 3.81453 19.7399 7.95183 -45.8162 -43.0659 45.1248 1.36755 -34.1137 0.419604 -6.91004 -0.294099 0.83243 -3.15356 14.6422 -13.7391 -0.0 0.0 -0.0 7.56538 6.38255 -14.6858 -28.5761 21.5522 -61.7068 0.72173 19.6732 -0.125141 5.25229 -0.155221 0.652707 0.0928143 1.18301 -0.122234 0.0 0.0 0.0 16.2965 -2.26841 2.95079 -13.8092 0.31801 2.09022 11.1715 -7.72603 -1.64125 -3.46123 0.0 0.0 -0.0 0.0 -0.0 9.52227 -11.1378 6.6059 4.87306 0.231123 0.711698 0.682492 4.0485 0.102108 0.224937 -0.0 -0.0 0.0 0.0 0.0 
3606.34 771.175 -766.612 -17.1219 48.4314 8.20278 5.25002 -0.0827251 0.0840443 5.25002 -0.0879053 0.0786099 5.2499 -0.0966924 0.0675089 5.2499 -0.0848172 0.0819324 -22.8342 -5.4012 -3.14795 -22.9457 -8.98244 -5.44658 -0.0 0.0 -0.0 3.50039 20.0074 7.48707 -45.7657 -42.4172 46.2756 1.30544 -32.8883 0.385321 -5.82824 -0.241447 0.704508 -2.90484 14.5637 -12.1909 -0.0 0.0 -0.0 7.40078 6.92691 -14.3303 -29.3472 22.692 -61.7969 0.762291 20.6873 -0.139134 6.22644 -0.177396 0.77517 0.322736 0.980846 -1.74674 0.0 0.0 0.0 16.5881 1.00952 3.03089 -14.4464 0.320444 2.18796 10.8738 -4.3671 -1.57641 -2.95807 0.0 0.0 -0.0 0.0 -0.0 9.76691 -11.6589 6.62289 4.6764 0.220625 0.683363 2.89616 4.06216 0.430698 0.71622 -0.0 -0.0 0.0 0.0 0.0 
3603.52 770.805 -767.484 -17.7019 49.2743 8.86652 5.28658 0.0911591 0.0430013 5.28657 0.088238 0.0487148 5.28665 0.0818021 0.0588855 5.28666 0.0900753 0.0452274 -22.4582 -5.88123 -3.87215 -22.5691 -9.55269 -6.30281 -0.0 0.0 -0.0 3.97192 20.0089 8.1876 -46.3946 -42.8648 46.8367 1.09308 -28.4339 0.276944 -5.74496 -0.237494 0.69462 -2.7512 14.9135 -11.0277 -0.0 0.0 -0.0 7.54714 9.01838 -14.5808 -28.1691 22.2201 -62.7297 0.718031 19.5801 -0.123898 7.01727 -0.193864 0.874848 0.216338 0.58325 -1.20086 0.0 0.0 0.0 16.5068 2.0347 3.08448 -14.0483 0.319051 2.1269 11.6993 -1.44553 -1.67454 -2.86196 0.0 0.0 -0.0 0.0 -0.0 9.87934 -13.2547 6.61352 4.75926 0.225037 0.695305 3.75014 5.10538 0.558619 0.611902 -0.0 -0.0 0.0 0.0 0.0 
3596.02 768.062 -770.583 -18.4536 51.1604 9.6295 5.10155 0.105852 -0.00205735 5.10154 0.105768 0.00468246 5.10156 0.1044 0.0175942 5.10157 0.105868 0.000885359 -21.9511 -5.07999 -4.12689 -22.0015 -7.85048 -6.11813 -0.0 0.0 -0.0 2.7977 19.2563 6.42067 -43.8594 -44.4522 50.389 1.09827 -28.5476 0.279418 -5.21836 -0.212833 0.631965 -2.60508 14.7552 -10.1871 -0.0 0.0 -0.0 7.56027 10.0083 -14.5756 -28.0409 21.9743 -62.9688 0.709656 19.3688 -0.121106 8.00798 -0.21255 1.00002 0.356735 0.41289 -2.21117 0.0 0.0 0.0 16.202 -0.740067 3.76839 -14.1551 0.319467 2.14327 12.0132 1.86467 -1.70431 -2.52787 0.0 0.0 -0.0 0.0 -0.0 9.98707 -14.7806 7.24423 3.7379 0.171876 0.547669 4.60886 4.36977 0.68273 0.550323 -0.0 -0.0 0.0 0.0 0.0 
3591.24 767.448 -770.941 -19.1767 51.9256 10.0436 5.01316 0.139425 0.157684 5.01316 0.129109 0.166237 5.01353 0.107512 0.180955 5.01351 0.134741 0.161705 -25.0137 -4.26543 -4.66132 -25.0287 -6.26794 -6.47839 -0.0 0.0 -0.0 3.18493 19.4181 7.0054 -45.4414 -43.7827 49.4151 1.05887 -27.6778 0.260854 -5.37508 -0.220112 0.650635 -2.51034 15.2966 -9.30959 -0.0 0.0 -0.0 7.38451 11.307 -14.1502 -27.4046 22.407 -63.8348 0.774909 21.0001 -0.143624 8.74336 -0.225019 1.09313 0.369253 0.249454 -2.36292 0.0 0.0 0.0 16.4303 4.10661 3.47872 -12.8836 0.312539 1.94831 9.36393 3.16041 -1.33852 -2.4162 0.0 0.0 -0.0 0.0 -0.0 9.30055 -15.3429 7.58037 5.09759 0.243227 0.744003 5.51494 5.6864 0.819033 1.03258 -0.0 -0.0 0.0 0.0 0.0 
3591.68 766.725 -771.39 -17.5947 53.8129 8.59916 5.19148 0.115144 0.17766 5.19149 0.103606 0.184627 5.19181 0.0805359 0.195794 5.19177 0.110447 0.180617 -25.3353 -4.11992 -5.21158 -25.3244 -5.78384 -6.93931 -0.0 0.0 -0.0 2.38484 19.0957 5.79518 -42.4909 -44.7224 51.8918 0.958091 -25.3891 0.215824 -4.10962 -0.162802 0.499332 -2.18219 16.7466 -6.53509 -0.0 0.0 -0.0 7.52205 13.0011 -14.3674 -26.6768 23.4759 -64.4144 0.759266 20.6121 -0.138067 10.909 -0.254782 1.36813 0.0300762 -4.26729 -1.98535 0.0 0.0 0.0 16.8969 5.98453 3.5629 -15.0464 0.321743 2.28001 7.96553 5.07334 -1.14146 -2.1524 0.0 0.0 -0.0 0.0 -0.0 8.19523 -17.9783 8.01846 4.86288 0.230578 0.710232 5.31754 4.26412 0.785652 -0.075293 0.0 0.0 0.0 0.0 0.0 
3586.66 767.591 -770.735 -17.0477 55.2344 8.78025 4.96698 0.0767608 0.203965 4.967 0.0636265 0.208436 4.96721 0.0371305 0.214745 4.96716 0.0705794 0.206185 -26.467 -2.79776 -5.29541 -26.4102 -3.29734 -6.40963 -0.0 0.0 -0.0 2.22926 18.9885 5.55641 -41.5405 -44.9614 53.5837 0.916775 -24.4245 0.198423 -3.90555 -0.153875 0.474817 -2.03612 18.4809 -4.78643 -0.0 0.0 -0.0 7.50351 14.4513 -14.2517 -26.6084 24.0316 -64.3122 0.768211 20.8342 -0.141232 11.9847 -0.265697 1.5051 -0.112011 -6.78737 -2.09967 0.0 0.0 0.0 18.0338 9.14251 2.67911 -14.3011 0.319985 2.16567 5.15199 6.35574 -0.7441 -2.78734 0.0 0.0 -0.0 0.0 -0.0 7.44553 -20.8096 7.79746 4.39789 0.205926 0.643177 6.33928 3.92101 0.932333 -0.626094 0.0 0.0 0.0 0.0 0.0 
3585.08 767.089 -776.876 -17.0924 57.2158 8.90953 5.10967 0.0884037 0.221712 5.1097 0.0741164 0.226888 5.10997 0.0458209 0.234248 5.1099 0.0822408 0.224071 -27.4301 -1.82317 -5.38357 -27.3529 -1.4705 -6.02139 -0.0 0.0 -0.0 1.82968 18.6878 4.93796 -40.1984 -44.9919 55.3061 0.875 -23.434 0.181478 -3.49626 -0.136232 0.425556 -1.92072 19.6724 -3.51335 -0.0 0.0 -0.0 7.76595 15.6119 -14.7546 -25.8463 24.6805 -64.7739 0.786368 21.283 -0.147757 12.9562 -0.273343 1.62896 -0.289685 -8.78433 -1.77824 0.0 0.0 0.0 19.6777 10.097 1.81458 -14.4399 0.320425 2.18697 3.8766 6.91731 -0.561807 -2.89306 0.0 0.0 -0.0 0.0 -0.0 6.73267 -22.8001 7.72603 3.6445 0.167146 0.534123 6.64827 3.45888 0.975144 -1.05202 0.0 0.0 0.0 0.0 0.0 
3583.2 764.661 -782.295 -17.3185 58.9776 9.52221 5.09022 0.0784402 0.243446 5.09025 0.0627902 0.247943 5.09049 0.031919 0.253771 5.09041 0.0715967 0.245545 -25.8203 -0.962341 -5.2599 -25.7428 0.282389 -5.39065 -0.0 0.0 -0.0 1.15336 18.2061 3.87996 -39.1926 -45.0508 56.8167 0.848312 -22.7934 0.171002 -3.17044 -0.122441 0.386254 -1.82717 20.5106 -2.55514 -0.0 0.0 -0.0 7.90062 16.6081 -14.9877 -25.3004 25.0733 -64.7038 0.777477 21.0636 -0.144545 13.8553 -0.278547 1.74367 -0.489189 -11.2775 -1.54498 0.0 0.0 0.0 20.8169 9.3737 1.05729 -15.2673 0.321978 2.31389 2.89802 6.9113 -0.421124 -2.43612 0.0 0.0 -0.0 0.0 -0.0 6.1702 -24.2527 7.34424 2.72841 0.121934 0.400861 7.76855 4.24793 1.13847 -0.94781 0.0 0.0 0.0 0.0 0.0 
3580.3 765.52 -785.957 -17.8323 60.9494 10.4817 5.16336 -0.0210678 0.257886 5.1634 -0.037435 0.256023 5.1632 -0.068225 0.249589 5.16311 -0.027951 0.257231 -26.1197 -0.26209 -4.61624 -26.0642 1.34686 -4.43454 -0.0 0.0 -0.0 1.04244 18.584 3.74356 -39.424 -43.9766 57.8609 0.775884 -21.0242 0.143973 -2.9901 -0.114904 0.364466 -1.81206 21.214 -2.13056 -0.0 0.0 -0.0 8.40658 16.0181 -16.1289 -24.8469 25.2518 -63.8055 0.787648 21.3145 -0.148222 13.8569 -0.278555 1.74388 -0.587764 -11.446 -0.990074 0.0 0.0 0.0 21.3227 8.05462 0.590443 -15.2102 0.32193 2.30514 2.53894 6.55152 -0.369364 -2.0454 0.0 0.0 -0.0 0.0 -0.0 5.70334 -25.3138 7.01716 1.52295 0.0657031 0.224456 7.98604 4.13529 1.16897 -0.936878 0.0 0.0 0.0 0.0 0.0 
